<svg id="visual" viewBox="0 0 1920 1080" width="1920" height="1080" xmlns="http://www.w3.org/2000/svg" xmlns:xlink="http://www.w3.org/1999/xlink" version="1.1"><rect x="0" y="0" width="1920" height="1080" fill="#080808"></rect><defs><linearGradient id="grad1_0" x1="43.8%" y1="100%" x2="100%" y2="0%"><stop offset="14.444444444444446%" stop-color="#0d89ea" stop-opacity="1"></stop><stop offset="85.55555555555554%" stop-color="#0d89ea" stop-opacity="1"></stop></linearGradient></defs><defs><linearGradient id="grad1_1" x1="43.8%" y1="100%" x2="100%" y2="0%"><stop offset="14.444444444444446%" stop-color="#0d89ea" stop-opacity="1"></stop><stop offset="85.55555555555554%" stop-color="#234671" stop-opacity="1"></stop></linearGradient></defs><defs><linearGradient id="grad1_2" x1="43.8%" y1="100%" x2="100%" y2="0%"><stop offset="14.444444444444446%" stop-color="#080808" stop-opacity="1"></stop><stop offset="85.55555555555554%" stop-color="#234671" stop-opacity="1"></stop></linearGradient></defs><defs><linearGradient id="grad2_0" x1="0%" y1="100%" x2="56.3%" y2="0%"><stop offset="14.444444444444446%" stop-color="#0d89ea" stop-opacity="1"></stop><stop offset="85.55555555555554%" stop-color="#0d89ea" stop-opacity="1"></stop></linearGradient></defs><defs><linearGradient id="grad2_1" x1="0%" y1="100%" x2="56.3%" y2="0%"><stop offset="14.444444444444446%" stop-color="#234671" stop-opacity="1"></stop><stop offset="85.55555555555554%" stop-color="#0d89ea" stop-opacity="1"></stop></linearGradient></defs><defs><linearGradient id="grad2_2" x1="0%" y1="100%" x2="56.3%" y2="0%"><stop offset="14.444444444444446%" stop-color="#234671" stop-opacity="1"></stop><stop offset="85.55555555555554%" stop-color="#080808" stop-opacity="1"></stop></linearGradient></defs><g transform="translate(1920, 1080)"><path d="M-540 0C-500.1 -63.3 -460.2 -126.7 -421.3 -174.5C-382.4 -222.3 -344.4 -254.7 -313.2 -313.2C-282.1 -371.8 -257.7 -456.7 -206.6 -498.9C-155.6 -541.1 -77.8 -540.5 0 -540L0 0Z" fill="#1b273b"></path><path d="M-360 0C-333.4 -42.2 -306.8 -84.5 -280.9 -116.3C-254.9 -148.2 -229.6 -169.8 -208.8 -208.8C-188.1 -247.9 -171.8 -304.5 -137.8 -332.6C-103.7 -360.7 -51.9 -360.4 0 -360L0 0Z" fill="#2266ab"></path><path d="M-180 0C-166.7 -21.1 -153.4 -42.2 -140.4 -58.2C-127.5 -74.1 -114.8 -84.9 -104.4 -104.4C-94 -123.9 -85.9 -152.2 -68.9 -166.3C-51.9 -180.4 -25.9 -180.2 0 -180L0 0Z" fill="#0d89ea"></path></g><g transform="translate(0, 0)"><path d="M540 0C525.1 66.3 510.2 132.6 487.8 202.1C465.4 271.5 435.5 344.2 381.8 381.8C328.2 419.5 250.9 422 183.3 442.5C115.7 463.1 57.9 501.5 0 540L0 0Z" fill="#1b273b"></path><path d="M360 0C350.1 44.2 340.1 88.4 325.2 134.7C310.3 181 290.3 229.5 254.6 254.6C218.8 279.6 167.3 281.3 122.2 295C77.1 308.7 38.6 334.4 0 360L0 0Z" fill="#2266ab"></path><path d="M180 0C175 22.1 170.1 44.2 162.6 67.4C155.1 90.5 145.2 114.7 127.3 127.3C109.4 139.8 83.6 140.7 61.1 147.5C38.6 154.4 19.3 167.2 0 180L0 0Z" fill="#0d89ea"></path></g></svg>